<svg id="Layer_1" data-name="Layer 1" xmlns="http://www.w3.org/2000/svg" viewBox="0 0 269.5 264.32"><defs><style>.cls-1{fill:#231f20;}.cls-2{fill:#00b1a6;}.cls-3{fill:#fff;}.cls-4{fill:#f16668;}.cls-5{fill:#fcb316;}</style></defs><title>University_of_Technology_logo_curved</title><path class="cls-1" d="M78.62,215.32V219l-3.24.62v15.77A5.79,5.79,0,0,0,77,239.84a6.25,6.25,0,0,0,4.41,1.48,6.37,6.37,0,0,0,4.46-1.47,5.76,5.76,0,0,0,1.62-4.48V219.59L84.26,219v-3.65H96.78V219l-3.24.62v15.77a9.59,9.59,0,0,1-3.35,7.85A13.39,13.39,0,0,1,81.4,246a13.27,13.27,0,0,1-8.75-2.76,9.62,9.62,0,0,1-3.33-7.85V219.59L66.1,219v-3.65H78.62Z" transform="translate(-66.1 -61.7)"/><path class="cls-1" d="M98.38,241.91l2.91-.62V227.36l-3.22-.62v-3.65h8.86l0.27,3.22a8.21,8.21,0,0,1,2.76-2.68,7.16,7.16,0,0,1,3.67-1,6.75,6.75,0,0,1,5.31,2.14q1.91,2.14,1.91,6.7v9.78l2.91,0.62v3.63H112.18v-3.63l2.59-.62v-9.76a4.54,4.54,0,0,0-.91-3.21,3.68,3.68,0,0,0-2.76-.94,4.69,4.69,0,0,0-2.16.49,4.46,4.46,0,0,0-1.6,1.38v12l2.45,0.62v3.63H98.38v-3.63Z" transform="translate(-66.1 -61.7)"/><path class="cls-1" d="M125.5,241.91l2.93-.62V227.36l-3.24-.62v-3.65h9.3v18.2l2.91,0.62v3.63H125.5v-3.63Zm9-24.2h-6.06v-4.55h6.06v4.55Z" transform="translate(-66.1 -61.7)"/><path class="cls-1" d="M148.91,226.73l-2.12.39,3,10,0.39,2.12h0.12l0.44-2.12,2.93-10-2.16-.42v-3.65h10.19v3.65l-2,.31-6.62,18.49h-5.79L140.68,227l-2-.31v-3.65h10.19v3.65Z" transform="translate(-66.1 -61.7)"/><path class="cls-1" d="M174.09,246a10.11,10.11,0,0,1-7.76-3.11,11.13,11.13,0,0,1-2.91-7.91v-0.83a12.28,12.28,0,0,1,2.75-8.24,10.25,10.25,0,0,1,14.44-.48,10.55,10.55,0,0,1,2.51,7.41v3.3H169.71l0,0.12a5.86,5.86,0,0,0,1.48,3.65,4.63,4.63,0,0,0,3.58,1.43,11.68,11.68,0,0,0,3.34-.4,15.29,15.29,0,0,0,2.91-1.28l1.64,3.74a11.92,11.92,0,0,1-3.6,1.85A15.33,15.33,0,0,1,174.09,246Zm-0.54-18.64a3.16,3.16,0,0,0-2.66,1.29,6.7,6.7,0,0,0-1.2,3.38l0.06,0.1h7.43v-0.54a4.87,4.87,0,0,0-.9-3.08A3.26,3.26,0,0,0,173.55,227.33Z" transform="translate(-66.1 -61.7)"/><path class="cls-1" d="M186.44,241.91l2.91-.62V227.36l-3.22-.62v-3.65H195l0.27,3.28a7.08,7.08,0,0,1,2-2.72,4.55,4.55,0,0,1,2.89-1,7.36,7.36,0,0,1,1,.07,6.35,6.35,0,0,1,.88.18l-0.64,5.52-2.49-.06a4.23,4.23,0,0,0-2.2.52,3.35,3.35,0,0,0-1.33,1.47v10.92l2.91,0.62v3.63H186.44v-3.63Z" transform="translate(-66.1 -61.7)"/><path class="cls-1" d="M222.2,230.8h-4.07l-0.64-2.8a5.34,5.34,0,0,0-1.57-.83,6.27,6.27,0,0,0-2.09-.33,4.07,4.07,0,0,0-2.53.72,2.18,2.18,0,0,0-.93,1.79,2,2,0,0,0,.89,1.69,9.52,9.52,0,0,0,3.57,1.19,14.55,14.55,0,0,1,6.19,2.44,5.36,5.36,0,0,1,2,4.43,5.89,5.89,0,0,1-2.6,4.95,11.28,11.28,0,0,1-6.86,1.92,14.38,14.38,0,0,1-4.76-.76A12.18,12.18,0,0,1,205,243l-0.06-5h4.23l0.83,2.93a3.47,3.47,0,0,0,1.47.67,8.5,8.5,0,0,0,2,.22,5,5,0,0,0,2.81-.66,2.08,2.08,0,0,0,1-1.81,2.11,2.11,0,0,0-1-1.72,10,10,0,0,0-3.59-1.29,14.41,14.41,0,0,1-6-2.4,5.2,5.2,0,0,1-2-4.33,6.28,6.28,0,0,1,2.32-4.87,9.72,9.72,0,0,1,6.62-2,17,17,0,0,1,5,.71,10.45,10.45,0,0,1,3.66,1.81Z" transform="translate(-66.1 -61.7)"/><path class="cls-1" d="M225.57,241.91l2.93-.62V227.36l-3.24-.62v-3.65h9.3v18.2l2.91,0.62v3.63H225.57v-3.63Zm9-24.2h-6.06v-4.55h6.06v4.55Z" transform="translate(-66.1 -61.7)"/><path class="cls-1" d="M248.4,217.58v5.5h3.94v4.25H248.4v11.44a2.64,2.64,0,0,0,.54,1.87,1.92,1.92,0,0,0,1.45.56,10.4,10.4,0,0,0,1.09-.05q0.47-.05,1-0.18l0.52,4.38a14.57,14.57,0,0,1-2,.47,14.06,14.06,0,0,1-2.16.15,6.45,6.45,0,0,1-4.83-1.72q-1.69-1.72-1.69-5.46V227.33h-3.3v-4.25h3.3v-5.5h6Z" transform="translate(-66.1 -61.7)"/><path class="cls-1" d="M278.55,226.73l-2.1.31L268.2,248.9a12.09,12.09,0,0,1-2.61,4.07,6.65,6.65,0,0,1-4.91,1.64,7.85,7.85,0,0,1-1.44-.12q-0.68-.12-1.59-0.35l0.71-4.42,0.6,0.08a4.19,4.19,0,0,0,.54,0,3.34,3.34,0,0,0,2.33-.74,4.88,4.88,0,0,0,1.25-1.84l0.68-1.7-7.12-18.49-2.1-.33v-3.65h11v3.65l-2.51.42,3.07,9,0.31,1.62,0.12,0,3.55-10.61-2.53-.42v-3.65h11v3.65Z" transform="translate(-66.1 -61.7)"/><path class="cls-1" d="M290.88,234.1a12,12,0,0,1,2.81-8.23,11.06,11.06,0,0,1,15.57,0,12,12,0,0,1,2.81,8.24v0.44a12,12,0,0,1-2.81,8.25,11.1,11.1,0,0,1-15.57,0,12,12,0,0,1-2.81-8.25V234.1Zm6.06,0.44a9.77,9.77,0,0,0,1.08,4.93,3.73,3.73,0,0,0,3.49,1.86,3.69,3.69,0,0,0,3.43-1.87,9.71,9.71,0,0,0,1.09-4.92V234.1a9.6,9.6,0,0,0-1.1-4.88,3.72,3.72,0,0,0-3.47-1.89,3.68,3.68,0,0,0-3.45,1.89,9.75,9.75,0,0,0-1.08,4.88v0.44Z" transform="translate(-66.1 -61.7)"/><path class="cls-1" d="M315,241.91l2.93-.62V227.33h-3.34v-4.25H318v-2.49a7.6,7.6,0,0,1,2.18-5.82,8.6,8.6,0,0,1,6.12-2,11.08,11.08,0,0,1,1.57.12q0.8,0.11,1.75.32l-0.52,4.5-1-.14a8.43,8.43,0,0,0-1.09-.06,2.9,2.9,0,0,0-2.23.81,3.27,3.27,0,0,0-.76,2.32v2.49h4.46v4.25H324v13.95l2.93,0.62v3.63H315v-3.63Z" transform="translate(-66.1 -61.7)"/><path class="cls-1" d="M97.26,260.86v9.27H91.91l-0.29-3.9h-6.4v24.52l3.73,0.72v4.18H74.51v-4.18l3.73-.72V266.24H71.86l-0.29,3.9H66.25v-9.27h31Z" transform="translate(-66.1 -61.7)"/><path class="cls-1" d="M110,296.16a11.64,11.64,0,0,1-8.94-3.58,12.81,12.81,0,0,1-3.35-9.1v-1a14.15,14.15,0,0,1,3.17-9.49,10.51,10.51,0,0,1,8.49-3.7q5.23,0,8.13,3.15a12.14,12.14,0,0,1,2.89,8.53v3.8H104.91l0,0.14a6.74,6.74,0,0,0,1.71,4.21,5.33,5.33,0,0,0,4.12,1.65,13.43,13.43,0,0,0,3.85-.47,17.77,17.77,0,0,0,3.34-1.47l1.89,4.3a13.77,13.77,0,0,1-4.15,2.13A17.68,17.68,0,0,1,110,296.16Zm-0.62-21.46a3.63,3.63,0,0,0-3.06,1.48,7.71,7.71,0,0,0-1.39,3.89l0.07,0.12h8.55v-0.62a5.59,5.59,0,0,0-1-3.55A3.75,3.75,0,0,0,109.33,274.7Z" transform="translate(-66.1 -61.7)"/><path class="cls-1" d="M135.78,290.81a4.12,4.12,0,0,0,3-1.09,3.86,3.86,0,0,0,1.12-2.9h6.31l0.07,0.14a8.06,8.06,0,0,1-2.94,6.56,11.09,11.09,0,0,1-7.55,2.64q-5.78,0-8.91-3.66a13.93,13.93,0,0,1-3.13-9.39v-0.72A13.75,13.75,0,0,1,127,273q3.21-3.68,9.16-3.68a15.92,15.92,0,0,1,5.62.93,11.1,11.1,0,0,1,4.13,2.63l0.1,6.9H140.3l-1.15-4a4.45,4.45,0,0,0-1.29-.75,4.81,4.81,0,0,0-1.75-.3,4.41,4.41,0,0,0-4.18,2.15,11.16,11.16,0,0,0-1.22,5.54v0.72a11.92,11.92,0,0,0,1.12,5.58A4.08,4.08,0,0,0,135.78,290.81Z" transform="translate(-66.1 -61.7)"/><path class="cls-1" d="M149,291.47l3.37-.72V263.3l-3.73-.72v-4.21h10.68V273.1a8.81,8.81,0,0,1,3-2.79,8.65,8.65,0,0,1,10.29,1.7q2.31,2.69,2.31,8.3v10.44l3.34,0.72v4.18H165v-4.18l3-.72V280.27q0-3-1.06-4.27a3.92,3.92,0,0,0-3.17-1.25,5.79,5.79,0,0,0-2.54.53,5.09,5.09,0,0,0-1.83,1.48v14l3,0.72v4.18H149v-4.18Z" transform="translate(-66.1 -61.7)"/><path class="cls-1" d="M180.16,291.47l3.35-.72v-16l-3.7-.72V269.8H190l0.31,3.71a9.45,9.45,0,0,1,3.18-3.08,8.23,8.23,0,0,1,4.23-1.1,7.78,7.78,0,0,1,6.12,2.46q2.2,2.46,2.2,7.72v11.25l3.35,0.72v4.18H196v-4.18l3-.72V279.53a5.23,5.23,0,0,0-1.05-3.69,4.23,4.23,0,0,0-3.18-1.09,5.37,5.37,0,0,0-2.49.56,5.1,5.1,0,0,0-1.84,1.59v13.86l2.82,0.72v4.18H180.16v-4.18Z" transform="translate(-66.1 -61.7)"/><path class="cls-1" d="M211.37,282.49A13.84,13.84,0,0,1,214.6,273a11.28,11.28,0,0,1,8.95-3.69q5.73,0,9,3.68a13.83,13.83,0,0,1,3.24,9.49V283a13.82,13.82,0,0,1-3.24,9.5,11.29,11.29,0,0,1-8.92,3.67q-5.76,0-9-3.67a13.82,13.82,0,0,1-3.24-9.5v-0.5Zm7,0.5a11.25,11.25,0,0,0,1.24,5.68,4.77,4.77,0,0,0,8,0,11.17,11.17,0,0,0,1.25-5.66v-0.5a11.05,11.05,0,0,0-1.27-5.62,4.29,4.29,0,0,0-4-2.17,4.23,4.23,0,0,0-4,2.17,11.23,11.23,0,0,0-1.24,5.62V283Z" transform="translate(-66.1 -61.7)"/><path class="cls-1" d="M237.58,262.59v-4.21h10.71v32.38l3.37,0.72v4.18H237.94v-4.18l3.37-.72V263.3Z" transform="translate(-66.1 -61.7)"/><path class="cls-1" d="M253.45,282.49a13.84,13.84,0,0,1,3.24-9.47,11.28,11.28,0,0,1,8.95-3.69q5.73,0,9,3.68a13.83,13.83,0,0,1,3.24,9.49V283a13.82,13.82,0,0,1-3.24,9.5,11.29,11.29,0,0,1-8.92,3.67q-5.76,0-9-3.67a13.82,13.82,0,0,1-3.24-9.5v-0.5Zm7,0.5a11.25,11.25,0,0,0,1.24,5.68,4.77,4.77,0,0,0,8,0,11.17,11.17,0,0,0,1.25-5.66v-0.5a11.05,11.05,0,0,0-1.27-5.62,4.29,4.29,0,0,0-4-2.17,4.23,4.23,0,0,0-4,2.17,11.23,11.23,0,0,0-1.24,5.62V283Z" transform="translate(-66.1 -61.7)"/><path class="cls-1" d="M281.31,282.94q0-6.11,2.66-9.87a8.63,8.63,0,0,1,7.47-3.75,7.42,7.42,0,0,1,3.82,1,8.56,8.56,0,0,1,2.82,2.76l0.5-3.25h6.07v25.09a10.71,10.71,0,0,1-3.21,8.16q-3.21,3-8.83,3a17.49,17.49,0,0,1-4.16-.54,19.24,19.24,0,0,1-4.06-1.47l1.29-4.9a22,22,0,0,0,3.35,1.13,14.5,14.5,0,0,0,3.54.42,4.64,4.64,0,0,0,3.82-1.55,6.66,6.66,0,0,0,1.27-4.32v-1.7a7.82,7.82,0,0,1-2.7,2.22,8,8,0,0,1-3.56.76,8.8,8.8,0,0,1-7.42-3.5,14.81,14.81,0,0,1-2.66-9.21v-0.5Zm7,0.5a10.52,10.52,0,0,0,1.15,5.34,4,4,0,0,0,3.73,1.95,5.76,5.76,0,0,0,2.71-.59,4.47,4.47,0,0,0,1.78-1.71V277.21a4.84,4.84,0,0,0-1.78-1.82,5.22,5.22,0,0,0-2.66-.64,3.94,3.94,0,0,0-3.74,2.27,12.84,12.84,0,0,0-1.18,5.93v0.5Z" transform="translate(-66.1 -61.7)"/><path class="cls-1" d="M335.6,274l-2.41.36-9.51,25.16a13.88,13.88,0,0,1-3,4.68q-1.88,1.89-5.65,1.89a9.13,9.13,0,0,1-1.66-.14q-0.78-.14-1.83-0.41l0.81-5.09,0.69,0.1a4.59,4.59,0,0,0,.62,0,3.84,3.84,0,0,0,2.68-.85,5.59,5.59,0,0,0,1.43-2.11l0.79-2-8.2-21.29L308,274V269.8h12.67V274l-2.89.48,3.54,10.32,0.36,1.86,0.14,0,4.09-12.21-2.92-.48V269.8H335.6V274Z" transform="translate(-66.1 -61.7)"/><path class="cls-2" d="M155.67,123.52c-5.25,0-18.1-2-24-20.47a0.5,0.5,0,0,1,.35-0.63,29.27,29.27,0,0,1,7-.8c15.87,0,19.63,11.81,20.46,18.85a0.5,0.5,0,0,1-.73.5,94.18,94.18,0,0,1-10.34-6.33c2.57,3,6.22,6.69,9.42,7.8a0.5,0.5,0,0,1-.09,1A14.26,14.26,0,0,1,155.67,123.52Z" transform="translate(-66.1 -61.7)"/><path class="cls-3" d="M139,102.12c7.31,0,18.12,2.73,20,18.41,0,0-10.82-5.65-14.33-9.85,0,0,7.13,10.2,13,12.24a13.85,13.85,0,0,1-1.94.11c-4.88,0-17.68-1.83-23.54-20.12a29.06,29.06,0,0,1,6.84-.79m0-1a29.86,29.86,0,0,0-7.1.82,1,1,0,0,0-.69,1.27C137.2,122,150.32,124,155.67,124a14.8,14.8,0,0,0,2.1-.13,1,1,0,0,0,.17-1.93,19,19,0,0,1-6.3-4.51c3.43,2.17,6.59,3.83,6.83,4a1,1,0,0,0,1.46-1c-2-16.78-14-19.29-21-19.29h0Z" transform="translate(-66.1 -61.7)"/><path class="cls-2" d="M211.8,126a0.75,0.75,0,0,1-.72-1c0.21-.73,4.06-14.1,8.89-24-5,6.18-11.55,15.56-12.5,22.75a0.75,0.75,0,0,1-.66.65h-0.08a0.75,0.75,0,0,1-.7-0.49c-0.13-.34-12.34-34.5,28.63-57.53a0.74,0.74,0,0,1,.59-0.06,0.75,0.75,0,0,1,.45.38c0.1,0.2,9.88,20.06,2.65,37.52-4.15,10-13,17.33-26.29,21.73A0.75,0.75,0,0,1,211.8,126Z" transform="translate(-66.1 -61.7)"/><path class="cls-3" d="M235,67s21.74,43.32-23.21,58.2c0,0,6.56-22.92,13.23-31.28,0,0-16.72,17.66-18.32,29.7,0,0-12.59-33.63,28.29-56.62m0-1.5a1.5,1.5,0,0,0-.74.19c-11.94,6.71-26.87,18.75-30.22,38a42.27,42.27,0,0,0,1.26,20.47,1.5,1.5,0,0,0,1.4,1h0.17a1.5,1.5,0,0,0,1.32-1.29c0.7-5.28,4.54-11.8,8.49-17.31-3.58,8.72-6.17,17.69-6.33,18.29a1.5,1.5,0,0,0,1.91,1.84c13.51-4.47,22.51-11.93,26.74-22.15,7.37-17.78-2.25-37.32-2.67-38.15a1.5,1.5,0,0,0-1.34-.83h0Z" transform="translate(-66.1 -61.7)"/><path class="cls-4" d="M239.34,155.61c-5.53,0-11.47-1.64-17.66-4.88a0.75,0.75,0,0,1,0-1.33,147.24,147.24,0,0,1,17.69-7.91c-6.23.66-14.46,2.12-18.82,5.35a0.75,0.75,0,0,1-1.12-.92c0.09-.18,9-18.38,32.74-18.38a59.07,59.07,0,0,1,16.74,2.63,0.75,0.75,0,0,1,.49,1C269.3,131.39,260.59,155.61,239.34,155.61Z" transform="translate(-66.1 -61.7)"/><path class="cls-3" d="M252.15,128.29a57.94,57.94,0,0,1,16.53,2.6s-8.38,24-29.35,24c-5,0-10.78-1.38-17.31-4.79,0,0,16.93-9,25.51-9.86,0,0-19.59.22-27.43,6,0,0,8.52-18,32.06-18m0-1.5c-12.63,0-21,5.09-25.85,9.35a32.84,32.84,0,0,0-7.56,9.46,1.5,1.5,0,0,0,2.25,1.85c2.87-2.13,7.51-3.47,12.12-4.31-6.12,2.6-11.4,5.4-11.79,5.61a1.5,1.5,0,0,0,0,2.65c6.3,3.29,12.36,5,18,5,9,0,17.25-4.34,23.71-12.56a47.67,47.67,0,0,0,7-12.42,1.5,1.5,0,0,0-1-1.93,59.8,59.8,0,0,0-17-2.67h0Z" transform="translate(-66.1 -61.7)"/><path class="cls-4" d="M164.26,152.59c-11.49,0-22.49-5.37-32.7-16a0.75,0.75,0,0,1,0-1.08c0.47-.41,11.62-10,25.26-10,10.38,0,19.24,5.56,26.34,16.54a0.75,0.75,0,0,1-.63,1.16h0a148,148,0,0,1-19.51-1.84c5.21,2.26,12.18,4.77,17.49,4.77h0a14.31,14.31,0,0,0,1.74-.1h0.09a0.75,0.75,0,0,1,.43,1.36,34.36,34.36,0,0,1-18.54,5.21h0Z" transform="translate(-66.1 -61.7)"/><path class="cls-3" d="M156.88,126.25c8.41,0,17.7,3.81,25.71,16.19,0,0-19.35-.47-27.29-4,0,0,15.29,8.43,25.25,8.43a14.9,14.9,0,0,0,1.83-.11,33.9,33.9,0,0,1-18.11,5.07c-8.91,0-20.27-3.39-32.16-15.73,0,0,11.25-9.86,24.77-9.86m25.5,20.51h0m-25.51-22c-13.92,0-25.28,9.81-25.76,10.23a1.5,1.5,0,0,0-.09,2.17c10.35,10.74,21.53,16.19,33.24,16.19A35.29,35.29,0,0,0,183.2,148a1.5,1.5,0,0,0-.79-2.76h-0.23a13.51,13.51,0,0,1-1.62.09A36.6,36.6,0,0,1,169.31,143c6.7,0.77,12.79.93,13.24,0.94h0a1.5,1.5,0,0,0,1.26-2.31c-7.25-11.2-16.32-16.88-27-16.88h0Z" transform="translate(-66.1 -61.7)"/><path class="cls-5" d="M187.37,133.64a0.75,0.75,0,0,1-.24,0c-0.31-.11-31.41-11.23-24-53.35a0.75,0.75,0,0,1,.74-0.62l0.17,0c0.81,0.18,19.83,4.62,27.94,19.8,4.66,8.71,4.7,19.16.12,31.06a0.75,0.75,0,0,1-.61.48h-0.09a0.75,0.75,0,0,1-.62-0.32,162.68,162.68,0,0,1-11.51-19.56c1.51,7,4.27,16.62,8.64,21.28A0.75,0.75,0,0,1,187.37,133.64Z" transform="translate(-66.1 -61.7)"/><path class="cls-3" d="M163.88,80.37s43,9.68,27.53,49.85c0,0-12.32-17.82-14.35-27.33,0,0,2.78,21.94,10.31,30,0,0-30.89-10.53-23.49-52.51m0-1.5a1.5,1.5,0,0,0-1.48,1.24c-2.17,12.29-2.31,29.77,9.31,43.24a38.57,38.57,0,0,0,15.17,11,1.5,1.5,0,0,0,1.58-2.44c-3.08-3.29-5.35-9.15-6.93-14.75,3.94,7.14,8.34,13.53,8.64,14a1.5,1.5,0,0,0,1.23.65h0.18a1.5,1.5,0,0,0,1.22-1c4.66-12.11,4.6-22.77-.16-31.68-8.28-15.48-27.62-20-28.44-20.18a1.5,1.5,0,0,0-.33,0h0Z" transform="translate(-66.1 -61.7)"/><path class="cls-2" d="M239.17,124.29a0.5,0.5,0,0,1-.42-0.78,98.91,98.91,0,0,1,8.05-10.31c-3.5,2.36-8,5.84-9.54,9.14a0.5,0.5,0,0,1-.45.29h-0.1a0.5,0.5,0,0,1-.4-0.47c0-.2-0.6-19.92,24.45-25h0.1a0.5,0.5,0,0,1,.49.42c0.07,0.49,1.75,12-4.93,19.86-3.83,4.49-9.64,6.79-17.26,6.84h0Z" transform="translate(-66.1 -61.7)"/><path class="cls-3" d="M260.86,97.67s4,26-21.69,26.12c0,0,7.22-10.71,12.05-13.91,0,0-11.58,6.31-14.41,12.24,0,0-.87-19.44,24-24.45m0-1-0.2,0c-7.32,1.47-17.08,5.2-22.05,14.62a23.11,23.11,0,0,0-2.8,10.86,1,1,0,0,0,.8.94l0.2,0a1,1,0,0,0,.9-0.57c1-2.2,3.42-4.48,5.92-6.45-2.85,3.5-5.13,6.88-5.3,7.13a1,1,0,0,0,.83,1.56h0c7.77,0,13.7-2.41,17.63-7,6.82-8,5.12-19.76,5-20.26a1,1,0,0,0-1-.85h0Z" transform="translate(-66.1 -61.7)"/><path class="cls-4" d="M195.82,100.18a0.5,0.5,0,0,1-.36-0.16c-0.15-.16-14.49-15.9,2.5-37.63a0.5,0.5,0,0,1,.34-0.19h0a0.5,0.5,0,0,1,.33.12c0.4,0.35,9.89,8.63,9.91,19.73,0,6.37-3.13,12.33-9.33,17.72a0.5,0.5,0,0,1-.33.12,0.49,0.49,0,0,1-.18,0,0.5,0.5,0,0,1-.32-0.41A105.39,105.39,0,0,1,197.79,85c-1.25,4.43-2.55,10.64-1.49,14.57A0.5,0.5,0,0,1,195.82,100.18Z" transform="translate(-66.1 -61.7)"/><path class="cls-3" d="M198.35,62.7s21.52,18.51.58,36.7c0,0-1.62-13.87.1-19.89,0,0-5.06,13.32-3.21,20.18,0,0-14.39-15.34,2.52-37m0-1h-0.1a1,1,0,0,0-.69.38c-5,6.34-10.33,16.25-7.79,27.45a24.89,24.89,0,0,0,5.33,10.84,1,1,0,0,0,1.69-.94c-0.74-2.72-.3-6.6.46-10.19,0.1,5.15.64,9.94,0.68,10.27a1,1,0,0,0,1.65.64c6.32-5.49,9.52-11.58,9.51-18.1,0-11.33-9.68-19.76-10.09-20.11a1,1,0,0,0-.65-0.24h0Z" transform="translate(-66.1 -61.7)"/><path class="cls-5" d="M239.49,177.59c-6.93,0-16-2.87-20-16.56a0.5,0.5,0,0,1,.48-0.64l0.16,0a99,99,0,0,1,12.11,5c-3.22-2.74-7.77-6.09-11.38-6.71a0.5,0.5,0,0,1-.07-1,20.29,20.29,0,0,1,5.86-.77c13.76,0,21.44,11,24.79,17.56a0.5,0.5,0,0,1-.24.68,31.33,31.33,0,0,1-11.74,2.42h0Z" transform="translate(-66.1 -61.7)"/><path class="cls-3" d="M226.68,157.44c6.39,0,16.83,2.57,24.34,17.29a31.13,31.13,0,0,1-11.53,2.37c-7.17,0-15.71-3.07-19.48-16.2,0,0,12.27,4.05,16.65,7.84,0,0-9.2-9.44-15.68-10.56a19.94,19.94,0,0,1,5.7-.75m0-1h0a20.83,20.83,0,0,0-6,.8,1,1,0,0,0,.14,1.94c2.39,0.41,5.23,2.08,7.8,4-4.14-1.79-8-3.08-8.29-3.17a1,1,0,0,0-1.27,1.23c4,14,13.33,16.92,20.44,16.92a31.88,31.88,0,0,0,11.94-2.46,1,1,0,0,0,.48-1.37c-3.4-6.66-11.21-17.83-25.23-17.83h0Z" transform="translate(-66.1 -61.7)"/><path class="cls-2" d="M158.85,176.85a44.4,44.4,0,0,1-9-1,0.5,0.5,0,0,1-.38-0.61c0-.19,5.12-19.05,21.43-19.05a28.58,28.58,0,0,1,11,2.47,0.5,0.5,0,0,1,.08.88,102.76,102.76,0,0,1-12.23,6.72c4.38-.82,10.27-2.34,13.21-4.93a0.5,0.5,0,0,1,.8.55c-0.06.15-5.86,15-24.87,15h0Z" transform="translate(-66.1 -61.7)"/><path class="cls-3" d="M170.87,156.69a27.88,27.88,0,0,1,10.81,2.43s-11.4,7.36-17.39,8.45c0,0,13.78-1.3,19-5.86,0,0-5.52,14.65-24.4,14.65a43.64,43.64,0,0,1-8.93-1s4.83-18.68,20.94-18.68m0-1c-16.69,0-21.86,19.23-21.91,19.43a1,1,0,0,0,.76,1.23,44.89,44.89,0,0,0,9.13,1c10.09,0,16.44-4.14,20-7.61a23.51,23.51,0,0,0,5.36-7.69,1,1,0,0,0-1.6-1.1c-2,1.77-5.46,3-8.84,3.91,4.36-2.26,8.18-4.72,8.46-4.9a1,1,0,0,0-.15-1.76,29.06,29.06,0,0,0-11.2-2.51h0Z" transform="translate(-66.1 -61.7)"/><path class="cls-1" d="M219.11,202.76l-1.64-8.21a1.23,1.23,0,0,0-1.21-1h-1.71a31.73,31.73,0,0,1-2.73-9.46,34.33,34.33,0,0,1,5.51-23.4,1.23,1.23,0,0,0-.17-1.53,35.92,35.92,0,0,1-10.46-23,6.16,6.16,0,1,0-10.84,0,35.92,35.92,0,0,1-10.46,23,1.23,1.23,0,0,0-.17,1.53,34.33,34.33,0,0,1,5.51,23.4,31.74,31.74,0,0,1-2.73,9.46H186.3a1.23,1.23,0,0,0-1.21,1l-1.64,8.21a1.23,1.23,0,0,0,1.21,1.47h33.24A1.23,1.23,0,0,0,219.11,202.76Zm-16.6-46.2V129.75a3.69,3.69,0,0,1,1.89,5.45,1.23,1.23,0,0,0-.19.73,38.38,38.38,0,0,0,10.51,24.28,36.93,36.93,0,0,0-5.34,24.32c0,0.28.08,0.55,0.12,0.82l0.47,2.46a33.74,33.74,0,0,0,1.85,5.75H190.73a33.74,33.74,0,0,0,1.85-5.75l0.47-2.46c0-.27.08-0.54,0.12-0.82a36.93,36.93,0,0,0-5.34-24.32,38.38,38.38,0,0,0,10.51-24.28,1.23,1.23,0,0,0-.19-0.73,3.69,3.69,0,0,1,1.89-5.45v26.81h2.46Zm-16.35,45.21,1.15-5.75h27.94l1.15,5.75H186.17Z" transform="translate(-66.1 -61.7)"/><path class="cls-1" d="M201.28,157.71a1.93,1.93,0,1,1-1.93,1.93,1.93,1.93,0,0,1,1.93-1.93m0-2a3.93,3.93,0,1,0,3.93,3.93,3.94,3.94,0,0,0-3.93-3.93h0Z" transform="translate(-66.1 -61.7)"/><path class="cls-1" d="M101.7,319.81l2-.19a2.4,2.4,0,0,0,.72,1.46,2.19,2.19,0,0,0,1.47.46,2.25,2.25,0,0,0,1.47-.41,1.23,1.23,0,0,0,.5-1,0.91,0.91,0,0,0-.21-0.61,1.66,1.66,0,0,0-.73-0.43q-0.36-.12-1.62-0.44a5.49,5.49,0,0,1-2.28-1,2.61,2.61,0,0,1-.92-2,2.57,2.57,0,0,1,.43-1.43,2.71,2.71,0,0,1,1.25-1,5,5,0,0,1,2-.35,4.23,4.23,0,0,1,2.84.83,2.92,2.92,0,0,1,1,2.21l-2,.09a1.73,1.73,0,0,0-.56-1.11,2,2,0,0,0-1.28-.34,2.31,2.31,0,0,0-1.38.36,0.73,0.73,0,0,0-.32.62,0.77,0.77,0,0,0,.3.61,5.32,5.32,0,0,0,1.86.67,9.75,9.75,0,0,1,2.18.72,2.8,2.8,0,0,1,1.11,1,3.15,3.15,0,0,1-.08,3.21,2.88,2.88,0,0,1-1.35,1.12,5.69,5.69,0,0,1-2.18.37,4.34,4.34,0,0,1-2.92-.88A3.82,3.82,0,0,1,101.7,319.81Z" transform="translate(-66.1 -61.7)"/><path class="cls-1" d="M115.74,320.76l1.91,0.32a3.13,3.13,0,0,1-1.17,1.6,3.42,3.42,0,0,1-2,.55,3.25,3.25,0,0,1-2.8-1.24,4.16,4.16,0,0,1-.72-2.5,4,4,0,0,1,.94-2.83,3.11,3.11,0,0,1,2.39-1,3.22,3.22,0,0,1,2.56,1.07,4.73,4.73,0,0,1,.9,3.28h-4.81a2,2,0,0,0,.46,1.33,1.45,1.45,0,0,0,1.11.47,1.18,1.18,0,0,0,.76-0.25A1.52,1.52,0,0,0,115.74,320.76Zm0.11-1.94a1.85,1.85,0,0,0-.43-1.27,1.32,1.32,0,0,0-1-.43,1.33,1.33,0,0,0-1,.46,1.77,1.77,0,0,0-.4,1.24h2.87Z" transform="translate(-66.1 -61.7)"/><path class="cls-1" d="M121.17,323.07h-1.92v-7.26H121v1a3.11,3.11,0,0,1,.82-1,1.51,1.51,0,0,1,.83-0.23,2.44,2.44,0,0,1,1.26.36l-0.59,1.67a1.68,1.68,0,0,0-.9-0.31,1.06,1.06,0,0,0-.68.22,1.52,1.52,0,0,0-.44.8,11.47,11.47,0,0,0-.16,2.43v2.24Z" transform="translate(-66.1 -61.7)"/><path class="cls-1" d="M126.77,323.07l-2.93-7.26h2l1.37,3.71,0.4,1.24q0.16-.47.2-0.62,0.1-.31.21-0.62l1.38-3.71h2l-2.88,7.26h-1.73Z" transform="translate(-66.1 -61.7)"/><path class="cls-1" d="M132.56,314.83V313h1.92v1.78h-1.92Zm0,8.24v-7.26h1.92v7.26h-1.92Z" transform="translate(-66.1 -61.7)"/><path class="cls-1" d="M143.05,323.07h-1.92v-3.71a5.73,5.73,0,0,0-.12-1.52,1.07,1.07,0,0,0-.4-0.54,1.14,1.14,0,0,0-.67-0.19,1.54,1.54,0,0,0-.9.27,1.38,1.38,0,0,0-.54.72,6.28,6.28,0,0,0-.15,1.67v3.29h-1.92v-7.26h1.78v1.07a3,3,0,0,1,3.55-1,2,2,0,0,1,.8.58,2.12,2.12,0,0,1,.38.81,6,6,0,0,1,.11,1.29v4.51Z" transform="translate(-66.1 -61.7)"/><path class="cls-1" d="M144.82,323.55l2.19,0.27a0.75,0.75,0,0,0,.25.53,1.45,1.45,0,0,0,.86.21,2.24,2.24,0,0,0,1.13-.23,0.93,0.93,0,0,0,.38-0.49,2.9,2.9,0,0,0,.09-0.88V321.9a2.6,2.6,0,0,1-2.17,1.18,2.67,2.67,0,0,1-2.32-1.24,4.21,4.21,0,0,1-.67-2.43,4,4,0,0,1,.88-2.79,2.83,2.83,0,0,1,2.18-1,2.66,2.66,0,0,1,2.22,1.18v-1h1.8v6.51a6.48,6.48,0,0,1-.21,1.92,2.38,2.38,0,0,1-.59,1,2.63,2.63,0,0,1-1,.57,5.39,5.39,0,0,1-1.62.21,4.19,4.19,0,0,1-2.62-.63,2,2,0,0,1-.77-1.6C144.82,323.72,144.82,323.64,144.82,323.55Zm1.72-4.26A2.62,2.62,0,0,0,147,321a1.39,1.39,0,0,0,1.1.54,1.53,1.53,0,0,0,1.19-.55,2.4,2.4,0,0,0,.49-1.63,2.54,2.54,0,0,0-.46-1.67,1.48,1.48,0,0,0-1.18-.55,1.42,1.42,0,0,0-1.14.54A2.52,2.52,0,0,0,146.54,319.29Z" transform="translate(-66.1 -61.7)"/><path class="cls-1" d="M157.46,323.07V313h7.43v1.7h-5.41V317h5v1.69h-5v2.73h5.6v1.69h-7.62Z" transform="translate(-66.1 -61.7)"/><path class="cls-1" d="M173.44,323.07h-1.78V322a2.88,2.88,0,0,1-1,.93,2.69,2.69,0,0,1-1.22.3,2.76,2.76,0,0,1-2.14-1,4.1,4.1,0,0,1-.89-2.81,4,4,0,0,1,.87-2.81,2.83,2.83,0,0,1,2.19-1,2.72,2.72,0,0,1,2.11,1V313h1.92v10Zm-5.13-3.79a3.33,3.33,0,0,0,.32,1.68,1.45,1.45,0,0,0,1.3.75,1.41,1.41,0,0,0,1.13-.56,2.6,2.6,0,0,0,.46-1.68,2.85,2.85,0,0,0-.45-1.8,1.48,1.48,0,0,0-2.3,0A2.45,2.45,0,0,0,168.31,319.28Z" transform="translate(-66.1 -61.7)"/><path class="cls-1" d="M180.11,323.07V322a2.79,2.79,0,0,1-1,.92,2.91,2.91,0,0,1-1.36.33,2.67,2.67,0,0,1-1.31-.32,1.89,1.89,0,0,1-.84-0.9,4,4,0,0,1-.26-1.61v-4.59h1.92v3.34a9.3,9.3,0,0,0,.11,1.88,1,1,0,0,0,.39.55,1.19,1.19,0,0,0,.71.2,1.51,1.51,0,0,0,.88-0.27,1.38,1.38,0,0,0,.53-0.67,7.79,7.79,0,0,0,.14-2v-3.06h1.92v7.26h-1.78Z" transform="translate(-66.1 -61.7)"/><path class="cls-1" d="M190.22,318l-1.89.34a1.38,1.38,0,0,0-.43-0.85,1.31,1.31,0,0,0-.88-0.29,1.43,1.43,0,0,0-1.14.5,2.54,2.54,0,0,0-.43,1.66,2.94,2.94,0,0,0,.43,1.83,1.43,1.43,0,0,0,1.17.53,1.29,1.29,0,0,0,.9-0.31,1.87,1.87,0,0,0,.49-1.07l1.89,0.32a3.35,3.35,0,0,1-1.13,2,3.49,3.49,0,0,1-2.24.66,3.33,3.33,0,0,1-2.54-1,4.58,4.58,0,0,1,0-5.58,3.37,3.37,0,0,1,2.57-1,3.51,3.51,0,0,1,2.11.57A3.16,3.16,0,0,1,190.22,318Z" transform="translate(-66.1 -61.7)"/><path class="cls-1" d="M193.11,318l-1.74-.31a2.71,2.71,0,0,1,1-1.56,3.7,3.7,0,0,1,2.13-.51,4.59,4.59,0,0,1,1.91.3,1.9,1.9,0,0,1,.88.77,4,4,0,0,1,.26,1.72l0,2.24a7.88,7.88,0,0,0,.09,1.41,4.15,4.15,0,0,0,.35,1h-1.9c0-.13-0.11-0.32-0.18-0.57l-0.07-.23a3.45,3.45,0,0,1-1.05.72,3,3,0,0,1-1.2.24,2.48,2.48,0,0,1-1.77-.61,2,2,0,0,1-.65-1.54,2.07,2.07,0,0,1,.29-1.1,1.93,1.93,0,0,1,.82-0.74,6.49,6.49,0,0,1,1.53-.45,10.54,10.54,0,0,0,1.87-.47v-0.19a1,1,0,0,0-.27-0.79,1.65,1.65,0,0,0-1-.24,1.37,1.37,0,0,0-.8.2A1.4,1.4,0,0,0,193.11,318Zm2.57,1.56q-0.37.12-1.17,0.29a3.53,3.53,0,0,0-1,.33,0.8,0.8,0,0,0-.38.68,0.94,0.94,0,0,0,.3.7,1,1,0,0,0,.77.29,1.66,1.66,0,0,0,1-.34,1.2,1.2,0,0,0,.46-0.64,3.81,3.81,0,0,0,.08-0.94v-0.38Z" transform="translate(-66.1 -61.7)"/><path class="cls-1" d="M202.79,315.81v1.53h-1.31v2.93a7.41,7.41,0,0,0,0,1,0.42,0.42,0,0,0,.17.24,0.54,0.54,0,0,0,.32.1,2.48,2.48,0,0,0,.77-0.18l0.16,1.49a3.82,3.82,0,0,1-1.52.29,2.43,2.43,0,0,1-.94-0.17,1.37,1.37,0,0,1-.61-0.45,1.77,1.77,0,0,1-.27-0.75,9.32,9.32,0,0,1-.06-1.35v-3.17h-0.88v-1.53h0.88v-1.44l1.93-1.12v2.56h1.31Z" transform="translate(-66.1 -61.7)"/><path class="cls-1" d="M204.12,314.83V313H206v1.78h-1.92Zm0,8.24v-7.26H206v7.26h-1.92Z" transform="translate(-66.1 -61.7)"/><path class="cls-1" d="M207.56,319.34a3.93,3.93,0,0,1,.47-1.85,3.24,3.24,0,0,1,1.34-1.37,4,4,0,0,1,1.93-.47,3.62,3.62,0,0,1,2.7,1.07,3.69,3.69,0,0,1,1.05,2.7,3.74,3.74,0,0,1-1.06,2.73,3.59,3.59,0,0,1-2.68,1.08,4.21,4.21,0,0,1-1.9-.45,3.1,3.1,0,0,1-1.38-1.32A4.41,4.41,0,0,1,207.56,319.34Zm2,0.1a2.41,2.41,0,0,0,.51,1.65,1.68,1.68,0,0,0,2.53,0,2.44,2.44,0,0,0,.51-1.67,2.4,2.4,0,0,0-.51-1.64,1.68,1.68,0,0,0-2.53,0A2.41,2.41,0,0,0,209.53,319.44Z" transform="translate(-66.1 -61.7)"/><path class="cls-1" d="M223.16,323.07h-1.92v-3.71a5.73,5.73,0,0,0-.12-1.52,1.07,1.07,0,0,0-.4-0.54,1.14,1.14,0,0,0-.67-0.19,1.54,1.54,0,0,0-.9.27,1.38,1.38,0,0,0-.54.72,6.28,6.28,0,0,0-.15,1.67v3.29h-1.92v-7.26h1.78v1.07a3,3,0,0,1,3.55-1,2,2,0,0,1,.8.58,2.12,2.12,0,0,1,.38.81,6,6,0,0,1,.11,1.29v4.51Z" transform="translate(-66.1 -61.7)"/><path class="cls-1" d="M228.5,319.81l2-.19a2.4,2.4,0,0,0,.72,1.46,2.19,2.19,0,0,0,1.47.46,2.25,2.25,0,0,0,1.47-.41,1.23,1.23,0,0,0,.5-1,0.91,0.91,0,0,0-.21-0.61,1.66,1.66,0,0,0-.73-0.43q-0.36-.12-1.62-0.44a5.49,5.49,0,0,1-2.28-1,2.61,2.61,0,0,1-.92-2,2.57,2.57,0,0,1,.43-1.43,2.71,2.71,0,0,1,1.25-1,5,5,0,0,1,2-.35,4.23,4.23,0,0,1,2.84.83,2.92,2.92,0,0,1,1,2.21l-2,.09a1.73,1.73,0,0,0-.56-1.11,2,2,0,0,0-1.28-.34,2.31,2.31,0,0,0-1.38.36,0.73,0.73,0,0,0-.32.62,0.77,0.77,0,0,0,.3.61,5.32,5.32,0,0,0,1.86.67,9.75,9.75,0,0,1,2.18.72,2.8,2.8,0,0,1,1.11,1,3.15,3.15,0,0,1-.08,3.21,2.88,2.88,0,0,1-1.35,1.12,5.69,5.69,0,0,1-2.18.37,4.34,4.34,0,0,1-2.92-.88A3.82,3.82,0,0,1,228.5,319.81Z" transform="translate(-66.1 -61.7)"/><path class="cls-1" d="M238.34,314.83V313h1.92v1.78h-1.92Zm0,8.24v-7.26h1.92v7.26h-1.92Z" transform="translate(-66.1 -61.7)"/><path class="cls-1" d="M248.83,323.07h-1.92v-3.71a5.73,5.73,0,0,0-.12-1.52,1.07,1.07,0,0,0-.4-0.54,1.14,1.14,0,0,0-.67-0.19,1.54,1.54,0,0,0-.9.27,1.38,1.38,0,0,0-.54.72,6.28,6.28,0,0,0-.15,1.67v3.29h-1.92v-7.26H244v1.07a3,3,0,0,1,3.55-1,2,2,0,0,1,.8.58,2.12,2.12,0,0,1,.38.81,6,6,0,0,1,.11,1.29v4.51Z" transform="translate(-66.1 -61.7)"/><path class="cls-1" d="M257.11,318l-1.89.34a1.38,1.38,0,0,0-.43-0.85,1.31,1.31,0,0,0-.88-0.29,1.43,1.43,0,0,0-1.14.5,2.54,2.54,0,0,0-.43,1.66,2.94,2.94,0,0,0,.43,1.83,1.43,1.43,0,0,0,1.17.53,1.29,1.29,0,0,0,.9-0.31,1.87,1.87,0,0,0,.49-1.07l1.89,0.32a3.35,3.35,0,0,1-1.13,2,3.49,3.49,0,0,1-2.24.66,3.33,3.33,0,0,1-2.54-1,4.58,4.58,0,0,1,0-5.58,3.37,3.37,0,0,1,2.57-1,3.51,3.51,0,0,1,2.11.57A3.16,3.16,0,0,1,257.11,318Z" transform="translate(-66.1 -61.7)"/><path class="cls-1" d="M262.77,320.76l1.91,0.32a3.13,3.13,0,0,1-1.17,1.6,3.42,3.42,0,0,1-2,.55,3.25,3.25,0,0,1-2.8-1.24,4.16,4.16,0,0,1-.72-2.5,4,4,0,0,1,.94-2.83,3.11,3.11,0,0,1,2.39-1,3.22,3.22,0,0,1,2.56,1.07,4.73,4.73,0,0,1,.9,3.28H260a2,2,0,0,0,.46,1.33,1.45,1.45,0,0,0,1.11.47,1.18,1.18,0,0,0,.76-0.25A1.52,1.52,0,0,0,262.77,320.76Zm0.11-1.94a1.85,1.85,0,0,0-.43-1.27,1.32,1.32,0,0,0-1-.43,1.33,1.33,0,0,0-1,.46,1.77,1.77,0,0,0-.4,1.24h2.87Z" transform="translate(-66.1 -61.7)"/><path class="cls-1" d="M274.75,323.07h-1.92v-7.24a6.63,6.63,0,0,1-2.48,1.46v-1.74a5.58,5.58,0,0,0,1.63-.93,3.55,3.55,0,0,0,1.21-1.6h1.56v10.06Z" transform="translate(-66.1 -61.7)"/><path class="cls-1" d="M277.66,320.75l1.86-.21a1.35,1.35,0,0,0,.36.84,1.05,1.05,0,0,0,.76.27,1.24,1.24,0,0,0,1-.55,4.65,4.65,0,0,0,.53-2.27,2.29,2.29,0,0,1-1.81.84,2.7,2.7,0,0,1-2-.91,3.32,3.32,0,0,1-.86-2.37,3.38,3.38,0,0,1,.91-2.46,3.28,3.28,0,0,1,4.81.25,6.09,6.09,0,0,1,1,3.88,6.17,6.17,0,0,1-1,4,3.29,3.29,0,0,1-2.65,1.22,2.81,2.81,0,0,1-1.9-.62A3,3,0,0,1,277.66,320.75Zm4.35-4.2a2.19,2.19,0,0,0-.43-1.44,1.26,1.26,0,0,0-1-.51,1.1,1.1,0,0,0-.88.42,2.14,2.14,0,0,0-.35,1.38,2.19,2.19,0,0,0,.38,1.43,1.2,1.2,0,0,0,1,.45,1.18,1.18,0,0,0,.93-0.44A1.91,1.91,0,0,0,282,316.56Z" transform="translate(-66.1 -61.7)"/><path class="cls-1" d="M285.41,315v-1.78H292v1.39a10.35,10.35,0,0,0-1.65,2.3,13.35,13.35,0,0,0-1.28,3.18,11.75,11.75,0,0,0-.43,3h-1.85a12.91,12.91,0,0,1,.86-4.24,14.15,14.15,0,0,1,2.16-3.86h-4.37Z" transform="translate(-66.1 -61.7)"/><path class="cls-1" d="M299.7,315.5l-1.86.21a1.36,1.36,0,0,0-.36-0.85,1,1,0,0,0-.75-0.27,1.26,1.26,0,0,0-1,.55,4.62,4.62,0,0,0-.53,2.28,2.24,2.24,0,0,1,1.78-.85,2.73,2.73,0,0,1,2.06.92,3.32,3.32,0,0,1,.86,2.37,3.39,3.39,0,0,1-.9,2.47,3.29,3.29,0,0,1-4.81-.25,6.07,6.07,0,0,1-1-3.87,6.18,6.18,0,0,1,1-4,3.29,3.29,0,0,1,2.65-1.22,2.81,2.81,0,0,1,1.89.64A3,3,0,0,1,299.7,315.5Zm-4.35,4.19a2.17,2.17,0,0,0,.43,1.45,1.27,1.27,0,0,0,1,.51,1.12,1.12,0,0,0,.89-0.42,2.1,2.1,0,0,0,.36-1.37,2.21,2.21,0,0,0-.38-1.43,1.23,1.23,0,0,0-1.89,0A1.88,1.88,0,0,0,295.35,319.69Z" transform="translate(-66.1 -61.7)"/></svg>